<?xml version="1.0" encoding="utf-8"?>
<!-- Generator: Adobe Illustrator 25.2.1, SVG Export Plug-In . SVG Version: 6.00 Build 0)  -->
<svg version="1.1" id="Layer_1" xmlns="http://www.w3.org/2000/svg" xmlns:xlink="http://www.w3.org/1999/xlink" x="0px" y="0px"
	 viewBox="0 0 1920 1080" style="enable-background:new 0 0 1920 1080;" xml:space="preserve">
<g>
	<path d="M924.9,669.7L924.9,669.7c-73.5,0-133-59.6-133-133V410.3h0c73.5,0,133,59.6,133,133V669.7z"/>
	<path d="M936.6,562.2L936.6,562.2V495c0-46.8,37.9-84.8,84.8-84.8l0,0v67.1C1021.3,524.2,983.4,562.2,936.6,562.2z"/>
	<path d="M1128.1,669.7H1031c-52.1,0-94.4-42.3-94.4-94.4v0h97.2C1085.9,575.3,1128.1,617.6,1128.1,669.7L1128.1,669.7z"/>
</g>
</svg>
