<?xml version="1.0" encoding="utf-8"?>
<!-- Generator: Adobe Illustrator 25.2.1, SVG Export Plug-In . SVG Version: 6.00 Build 0)  -->
<svg version="1.1" id="Layer_1" xmlns="http://www.w3.org/2000/svg" xmlns:xlink="http://www.w3.org/1999/xlink" x="0px" y="0px"
	 viewBox="0 0 1920 1080" style="enable-background:new 0 0 1920 1080;" xml:space="preserve">
<g>
	<path d="M813.9,1080L813.9,1080c-305.8,0-553.8-247.9-553.8-553.8V0h0c305.8,0,553.8,247.9,553.8,553.8V1080z"/>
	<path d="M862.4,632.3L862.4,632.3V352.8C862.4,157.9,1020.4,0,1215.2,0l0,0v279.5C1215.2,474.3,1057.2,632.3,862.4,632.3z"/>
	<path d="M1659.9,1080h-404.6c-217,0-392.9-175.9-392.9-392.9v0H1267C1484,687.1,1659.9,863,1659.9,1080L1659.9,1080z"/>
</g>
</svg>
